<svg xmlns="http://www.w3.org/2000/svg" xmlns:xlink="http://www.w3.org/1999/xlink" width="500" zoomAndPan="magnify" viewBox="0 0 375 374.999991" height="500" preserveAspectRatio="xMidYMid meet" version="1.0"><defs><g/><clipPath id="c2a8ba6bd5"><path d="M 187.5 0 C 83.945312 0 0 83.945312 0 187.5 C 0 291.054688 83.945312 375 187.5 375 C 291.054688 375 375 291.054688 375 187.5 C 375 83.945312 291.054688 0 187.5 0 Z M 187.5 0 " clip-rule="nonzero"/></clipPath><clipPath id="ce72f80757"><path d="M 56.800781 161 L 69.761719 161 L 69.761719 181.6875 L 56.800781 181.6875 Z M 56.800781 161 " clip-rule="nonzero"/></clipPath><clipPath id="1ca44f4c4e"><path d="M 60 140 L 318.199219 140 L 318.199219 183 L 60 183 Z M 60 140 " clip-rule="nonzero"/></clipPath><clipPath id="eb9e9722fe"><path d="M 150 183.332031 L 229.601562 183.332031 L 229.601562 193.941406 L 150 193.941406 Z M 150 183.332031 " clip-rule="nonzero"/></clipPath><clipPath id="3c40eaf4f8"><path d="M 267.320312 225.710938 L 328.070312 225.710938 L 328.070312 231 L 267.320312 231 Z M 267.320312 225.710938 " clip-rule="nonzero"/></clipPath><clipPath id="affd0ef6d2"><path d="M 46.269531 225.710938 L 107.019531 225.710938 L 107.019531 231 L 46.269531 231 Z M 46.269531 225.710938 " clip-rule="nonzero"/></clipPath></defs><g clip-path="url(#c2a8ba6bd5)"><rect x="-37.5" width="450" fill="#000000" y="-37.499999" height="449.999989" fill-opacity="1"/></g><path fill="#e52024" d="M 293.660156 171.980469 L 298.9375 177.769531 C 299.5625 178.460938 300.417969 178.902344 301.339844 179.015625 L 308.785156 179.941406 C 308.957031 179.960938 309.082031 180.113281 309.074219 180.285156 C 309.0625 180.460938 308.917969 180.597656 308.742188 180.597656 L 299.003906 180.597656 C 298.894531 180.597656 298.792969 180.542969 298.730469 180.453125 L 293.148438 172.390625 C 293.050781 172.246094 293.078125 172.050781 293.214844 171.941406 C 293.347656 171.835938 293.546875 171.851562 293.660156 171.980469 " fill-opacity="1" fill-rule="nonzero"/><g clip-path="url(#ce72f80757)"><path fill="#e52024" d="M 56.476562 181.386719 L 64.089844 165.492188 C 64.132812 165.398438 64.136719 165.292969 64.089844 165.199219 C 64.046875 165.101562 63.964844 165.027344 63.859375 164.992188 L 63.160156 164.742188 C 63.074219 164.714844 63.03125 164.628906 63.0625 164.550781 L 64.464844 161.160156 C 64.492188 161.097656 64.566406 161.054688 64.640625 161.066406 L 69.371094 161.6875 C 69.425781 161.691406 69.472656 161.722656 69.496094 161.769531 C 69.519531 161.8125 69.519531 161.867188 69.488281 161.910156 L 56.769531 181.523438 C 56.738281 181.570312 56.683594 181.597656 56.628906 181.597656 C 56.601562 181.597656 56.574219 181.589844 56.550781 181.582031 C 56.476562 181.542969 56.441406 181.460938 56.476562 181.386719 " fill-opacity="1" fill-rule="nonzero"/></g><g clip-path="url(#1ca44f4c4e)"><path fill="#f5f6f5" d="M 60.492188 156 L 60.71875 156.800781 C 61.347656 159.015625 63.597656 160.347656 65.839844 159.828125 C 66.640625 159.644531 67.359375 159.480469 67.757812 159.398438 C 68.414062 159.289062 69.132812 159.183594 69.890625 159.066406 C 70.652344 158.953125 71.457031 158.808594 72.324219 158.722656 C 73.191406 158.625 74.105469 158.519531 75.058594 158.40625 C 76.019531 158.300781 77.039062 158.234375 78.089844 158.136719 C 78.617188 158.089844 79.152344 158.046875 79.703125 158 C 80.253906 157.964844 80.816406 157.929688 81.390625 157.894531 C 82.539062 157.832031 83.722656 157.742188 84.953125 157.695312 C 89.871094 157.453125 95.457031 157.375 101.558594 157.398438 C 107.65625 157.441406 114.277344 157.640625 121.28125 157.960938 C 128.285156 158.28125 135.671875 158.71875 143.3125 159.253906 C 147.132812 159.519531 151.019531 159.8125 154.945312 160.121094 C 158.875 160.441406 162.851562 160.796875 166.863281 161.160156 C 174.878906 161.886719 183.015625 162.6875 191.160156 163.511719 C 195.226562 163.925781 199.296875 164.335938 203.355469 164.75 C 205.390625 164.949219 207.414062 165.148438 209.433594 165.347656 C 210.449219 165.441406 211.457031 165.535156 212.46875 165.628906 C 213.46875 165.722656 214.5 165.792969 215.503906 165.867188 C 219.539062 166.191406 223.570312 166.367188 227.554688 166.367188 C 231.539062 166.394531 235.480469 166.222656 239.328125 165.910156 C 243.171875 165.605469 246.921875 165.203125 250.585938 164.914062 C 254.246094 164.621094 257.839844 164.433594 261.320312 164.34375 C 262.199219 164.328125 263.070312 164.3125 263.9375 164.300781 C 264.371094 164.296875 264.800781 164.289062 265.234375 164.285156 L 265.558594 164.28125 L 265.859375 164.285156 L 266.488281 164.296875 C 266.90625 164.308594 267.320312 164.308594 267.730469 164.328125 C 268.148438 164.359375 268.558594 164.390625 268.96875 164.414062 C 269.792969 164.460938 270.601562 164.578125 271.410156 164.667969 C 274.632812 165.082031 277.722656 165.75 280.65625 166.53125 C 286.515625 168.105469 291.746094 170.101562 296.304688 172.019531 C 300.851562 173.984375 304.730469 175.902344 307.882812 177.546875 C 311.039062 179.1875 313.464844 180.574219 315.101562 181.546875 C 315.925781 182.035156 316.542969 182.410156 316.960938 182.664062 C 317.078125 182.738281 317.210938 182.773438 317.339844 182.773438 C 317.585938 182.773438 317.824219 182.652344 317.957031 182.429688 C 318.546875 181.464844 318.222656 180.203125 317.242188 179.644531 C 317 179.503906 316.734375 179.351562 316.441406 179.1875 C 314.753906 178.238281 312.269531 176.875 309.050781 175.253906 C 305.828125 173.632812 301.871094 171.75 297.226562 169.824219 C 292.589844 167.894531 287.261719 165.886719 281.242188 164.296875 C 278.230469 163.507812 275.050781 162.832031 271.691406 162.417969 C 270.851562 162.328125 270.007812 162.210938 269.144531 162.164062 C 268.714844 162.136719 268.28125 162.105469 267.847656 162.070312 C 267.414062 162.054688 266.976562 162.046875 266.535156 162.035156 L 265.875 162.023438 L 265.535156 162.015625 L 265.210938 162.019531 C 264.78125 162.023438 264.351562 162.027344 263.917969 162.03125 C 263.050781 162.042969 262.175781 162.054688 261.296875 162.066406 C 257.742188 162.148438 254.113281 162.328125 250.410156 162.613281 C 246.710938 162.890625 242.953125 163.285156 239.148438 163.574219 C 235.351562 163.871094 231.492188 164.03125 227.578125 163.988281 C 223.667969 163.945312 219.707031 163.726562 215.714844 163.363281 C 214.710938 163.273438 213.726562 163.199219 212.71875 163.089844 C 211.714844 162.984375 210.707031 162.882812 209.703125 162.777344 C 207.691406 162.554688 205.667969 162.332031 203.644531 162.113281 C 199.597656 161.652344 195.53125 161.195312 191.464844 160.738281 C 175.199219 158.894531 158.902344 157.175781 143.597656 155.875 C 140.390625 155.597656 137.230469 155.339844 134.117188 155.109375 C 133.851562 155.085938 133.582031 155.066406 133.3125 155.046875 C 133.6875 154.886719 134.09375 154.71875 134.535156 154.542969 C 138.855469 152.8125 146.503906 150.175781 158.410156 147.417969 C 170.976562 144.503906 185.289062 145.199219 195.472656 146.378906 C 202.5625 147.203125 209.542969 148.816406 216.257812 151.242188 C 216.289062 151.253906 216.320312 151.265625 216.351562 151.277344 C 224.445312 154.203125 230.976562 157.246094 235.46875 159.5 C 237.710938 160.628906 239.449219 161.566406 240.621094 162.21875 C 241.003906 162.429688 241.359375 162.644531 241.640625 162.816406 C 241.644531 162.816406 241.644531 162.820312 241.648438 162.820312 C 241.652344 162.824219 241.660156 162.828125 241.667969 162.832031 C 241.953125 162.992188 242.359375 163.042969 242.414062 163.046875 C 242.417969 163.046875 242.421875 163.046875 242.421875 163.046875 C 243.03125 163.019531 244.199219 162.917969 245.027344 162.84375 C 245.066406 162.839844 245.105469 162.835938 245.140625 162.832031 C 245.148438 162.832031 245.160156 162.832031 245.171875 162.832031 C 245.78125 162.742188 245.554688 162.511719 245.378906 162.390625 C 245.367188 162.382812 245.359375 162.375 245.347656 162.371094 C 245.332031 162.363281 245.3125 162.351562 245.296875 162.339844 C 245.28125 162.332031 245.265625 162.320312 245.25 162.3125 C 245.246094 162.308594 245.246094 162.308594 245.246094 162.308594 C 244.433594 161.808594 243.195312 161.046875 243.125 161.003906 C 242.816406 160.824219 242.363281 160.558594 241.769531 160.210938 C 240.582031 159.53125 238.828125 158.550781 236.570312 157.375 C 232.042969 155.027344 225.480469 151.851562 217.296875 148.761719 C 213.207031 147.214844 208.710938 145.703125 203.871094 144.378906 C 199.035156 143.050781 193.855469 141.898438 188.417969 141.113281 C 182.984375 140.363281 177.289062 139.992188 171.507812 140.234375 C 170.78125 140.257812 170.058594 140.332031 169.335938 140.375 L 168.242188 140.457031 L 167.695312 140.496094 L 167.160156 140.546875 C 165.730469 140.691406 164.300781 140.835938 162.867188 140.976562 C 160 141.261719 157.113281 141.589844 154.230469 141.894531 C 148.472656 142.546875 142.714844 143.222656 137.058594 143.933594 C 134.230469 144.285156 131.425781 144.640625 128.652344 145.007812 C 125.882812 145.363281 123.144531 145.730469 120.453125 146.097656 C 117.765625 146.46875 115.117188 146.835938 112.53125 147.195312 C 109.941406 147.546875 107.414062 147.9375 104.949219 148.304688 C 104.238281 148.410156 103.535156 148.519531 102.832031 148.625 C 102.320312 148.707031 101.8125 148.78125 101.3125 148.859375 L 134.046875 154.621094 C 134.046875 154.621094 134.015625 154.617188 133.945312 154.613281 C 133.925781 154.613281 133.902344 154.609375 133.878906 154.609375 C 132.367188 154.488281 120.875 153.632812 106.820312 153.3125 C 91.15625 152.953125 72.296875 153.257812 60.507812 156 C 60.503906 156 60.496094 156 60.492188 156 " fill-opacity="1" fill-rule="nonzero"/></g><path fill="#f5f6f5" d="M 213.800781 159.65625 L 213.800781 158.757812 C 213.800781 158.164062 214.125 157.621094 214.644531 157.335938 L 216.417969 156.367188 C 217.066406 156.015625 217.832031 155.960938 218.519531 156.226562 L 226.007812 159.070312 C 226.425781 159.230469 226.710938 159.640625 226.710938 160.089844 L 226.710938 161.484375 C 226.710938 161.605469 226.664062 161.722656 226.585938 161.8125 L 225.621094 162.898438 C 225.527344 163.003906 225.394531 163.0625 225.25 163.0625 L 221.160156 163.0625 C 220.984375 163.0625 220.824219 162.972656 220.734375 162.824219 C 220.644531 162.675781 220.640625 162.488281 220.722656 162.335938 L 220.984375 161.847656 L 214.652344 160.679688 C 214.160156 160.589844 213.800781 160.160156 213.800781 159.65625 " fill-opacity="1" fill-rule="nonzero"/><path fill="#f5f6f5" d="M 128.675781 161.597656 L 133.921875 159.808594 C 134.070312 159.757812 134.242188 159.804688 134.328125 159.921875 C 134.410156 160.035156 134.386719 160.183594 134.265625 160.273438 L 131.453125 162.335938 C 131.21875 162.507812 131.15625 162.792969 131.300781 163.023438 L 144.222656 183.578125 L 150.539062 187.859375 C 150.675781 187.953125 150.703125 188.117188 150.597656 188.238281 C 150.535156 188.3125 150.433594 188.351562 150.332031 188.351562 C 150.269531 188.351562 150.207031 188.335938 150.148438 188.304688 L 143.230469 184.445312 C 143.183594 184.421875 143.148438 184.386719 143.125 184.347656 L 128.511719 161.988281 C 128.46875 161.917969 128.460938 161.835938 128.492188 161.761719 C 128.523438 161.6875 128.589844 161.628906 128.675781 161.597656 " fill-opacity="1" fill-rule="nonzero"/><g clip-path="url(#eb9e9722fe)"><path fill="#f5f6f5" d="M 150.167969 183.464844 C 150.183594 183.390625 150.261719 183.335938 150.351562 183.347656 L 225.796875 191.128906 C 225.851562 191.136719 225.898438 191.164062 225.921875 191.207031 C 225.949219 191.25 225.945312 191.296875 225.914062 191.339844 L 225.113281 192.433594 L 229.210938 193.683594 C 229.289062 193.710938 229.332031 193.78125 229.3125 193.847656 C 229.292969 193.910156 229.226562 193.953125 229.152344 193.953125 C 229.144531 193.953125 229.136719 193.953125 229.128906 193.949219 L 150.308594 183.617188 C 150.21875 183.609375 150.15625 183.539062 150.167969 183.464844 " fill-opacity="1" fill-rule="nonzero"/></g><path fill="#f5f6f5" d="M 267.054688 171.214844 C 275.457031 171.214844 283.300781 175.734375 287.53125 183.007812 C 287.65625 183.222656 287.59375 183.488281 287.382812 183.625 C 287.300781 183.671875 287.214844 183.699219 287.132812 183.699219 C 286.988281 183.699219 286.847656 183.628906 286.757812 183.5 C 282.3125 177.128906 274.761719 173.171875 267.054688 173.171875 C 260.109375 173.171875 252.929688 176.539062 248.320312 181.957031 C 248.160156 182.148438 247.886719 182.175781 247.691406 182.023438 C 247.496094 181.871094 247.453125 181.605469 247.59375 181.398438 C 252.023438 175.019531 259.296875 171.214844 267.054688 171.214844 " fill-opacity="1" fill-rule="nonzero"/><path fill="#f5f6f5" d="M 96.921875 166.269531 C 105.324219 166.269531 113.171875 170.789062 117.398438 178.066406 C 117.523438 178.28125 117.460938 178.546875 117.25 178.679688 C 117.171875 178.730469 117.085938 178.753906 116.996094 178.753906 C 116.855469 178.753906 116.714844 178.683594 116.625 178.554688 C 112.179688 172.183594 104.628906 168.226562 96.921875 168.226562 C 89.976562 168.226562 82.800781 171.59375 78.1875 177.015625 C 78.027344 177.203125 77.757812 177.234375 77.558594 177.082031 C 77.363281 176.929688 77.320312 176.660156 77.460938 176.457031 C 81.890625 170.078125 89.167969 166.269531 96.921875 166.269531 " fill-opacity="1" fill-rule="nonzero"/><path fill="#f5f6f5" d="M 245.027344 162.84375 C 245.066406 162.84375 245.109375 162.839844 245.140625 162.832031 C 245.105469 162.835938 245.066406 162.839844 245.027344 162.84375 " fill-opacity="1" fill-rule="nonzero"/><g fill="#f5f6f5" fill-opacity="1"><g transform="translate(33.906869, 216.358183)"><g><path d="M 19.015625 0 L 19.015625 -2.859375 L 5.375 -2.859375 L 5.375 -18.015625 L 2.515625 -18.015625 L 2.515625 0 Z M 19.015625 0 "/></g></g></g><g fill="#f5f6f5" fill-opacity="1"><g transform="translate(62.397846, 216.358183)"><g><path d="M 17.625 0 C 19.207031 0 20.554688 -0.554688 21.671875 -1.671875 C 22.796875 -2.796875 23.359375 -4.148438 23.359375 -5.734375 L 23.359375 -18.015625 L 20.5 -18.015625 L 20.5 -5.734375 C 20.5 -4.929688 20.21875 -4.25 19.65625 -3.6875 C 19.09375 -3.132812 18.414062 -2.859375 17.625 -2.859375 L 7.609375 -2.859375 C 6.816406 -2.859375 6.140625 -3.132812 5.578125 -3.6875 C 5.023438 -4.25 4.75 -4.929688 4.75 -5.734375 L 4.75 -18.015625 L 1.890625 -18.015625 L 1.890625 -5.734375 C 1.890625 -4.148438 2.445312 -2.796875 3.5625 -1.671875 C 4.675781 -0.554688 6.023438 0 7.609375 0 Z M 17.625 0 "/></g></g></g><g fill="#f5f6f5" fill-opacity="1"><g transform="translate(96.241774, 216.358183)"><g><path d="M 25.1875 0 L 20.828125 0 L 12.765625 -7.09375 L 4.703125 0 L 0.375 0 L 10.609375 -9.015625 L 0.375 -18.015625 L 4.703125 -18.015625 L 12.765625 -10.921875 L 20.828125 -18.015625 L 25.1875 -18.015625 L 14.921875 -9.015625 Z M 25.1875 0 "/></g></g></g><g fill="#f5f6f5" fill-opacity="1"><g transform="translate(130.412404, 216.358183)"><g><path d="M 22.5625 0 L 2.515625 0 L 2.515625 -18.015625 L 22.5625 -18.015625 L 22.5625 -15.171875 L 5.375 -15.171875 L 5.375 -10.4375 L 20.515625 -10.4375 L 20.515625 -7.578125 L 5.375 -7.578125 L 5.375 -2.859375 L 22.5625 -2.859375 Z M 22.5625 0 "/></g></g></g><g fill="#f5f6f5" fill-opacity="1"><g transform="translate(163.452137, 216.358183)"><g><path d="M 27.3125 0 L 24.4375 0 L 24.4375 -12.171875 L 15.640625 0 L 14.171875 0 L 5.375 -12.171875 L 5.375 0 L 2.515625 0 L 2.515625 -18.015625 L 4.671875 -18.015625 L 14.921875 -3.875 L 25.140625 -18.015625 L 27.3125 -18.015625 Z M 27.3125 0 "/></g></g></g><g fill="#f5f6f5" fill-opacity="1"><g transform="translate(201.86995, 216.358183)"><g><path d="M 17.625 0 C 19.207031 0 20.554688 -0.554688 21.671875 -1.671875 C 22.796875 -2.796875 23.359375 -4.148438 23.359375 -5.734375 L 23.359375 -12.296875 C 23.359375 -13.878906 22.796875 -15.226562 21.671875 -16.34375 C 20.554688 -17.457031 19.207031 -18.015625 17.625 -18.015625 L 7.609375 -18.015625 C 6.023438 -18.015625 4.675781 -17.457031 3.5625 -16.34375 C 2.445312 -15.226562 1.890625 -13.878906 1.890625 -12.296875 L 1.890625 -5.734375 C 1.890625 -4.148438 2.445312 -2.796875 3.5625 -1.671875 C 4.675781 -0.554688 6.023438 0 7.609375 0 Z M 17.625 -2.859375 L 7.609375 -2.859375 C 6.816406 -2.859375 6.140625 -3.132812 5.578125 -3.6875 C 5.023438 -4.25 4.75 -4.929688 4.75 -5.734375 L 4.75 -12.296875 C 4.75 -13.085938 5.023438 -13.765625 5.578125 -14.328125 C 6.140625 -14.890625 6.816406 -15.171875 7.609375 -15.171875 L 17.625 -15.171875 C 18.414062 -15.171875 19.09375 -14.890625 19.65625 -14.328125 C 20.21875 -13.765625 20.5 -13.085938 20.5 -12.296875 L 20.5 -5.734375 C 20.5 -4.929688 20.21875 -4.25 19.65625 -3.6875 C 19.09375 -3.132812 18.414062 -2.859375 17.625 -2.859375 Z M 17.625 -2.859375 "/></g></g></g><g fill="#f5f6f5" fill-opacity="1"><g transform="translate(235.71387, 216.358183)"><g><path d="M 11.390625 0 L 8.53125 0 L 8.53125 -15.171875 L 0.375 -15.171875 L 0.375 -18.015625 L 19.5625 -18.015625 L 19.5625 -15.171875 L 11.390625 -15.171875 Z M 11.390625 0 "/></g></g></g><g fill="#f5f6f5" fill-opacity="1"><g transform="translate(264.255113, 216.358183)"><g><path d="M 5.375 0 L 5.375 -18.015625 L 2.515625 -18.015625 L 2.515625 0 Z M 5.375 0 "/></g></g></g><g fill="#f5f6f5" fill-opacity="1"><g transform="translate(280.745933, 216.358183)"><g><path d="M 17.625 0 C 19.207031 0 20.554688 -0.554688 21.671875 -1.671875 C 22.796875 -2.796875 23.359375 -4.148438 23.359375 -5.734375 L 23.359375 -12.296875 C 23.359375 -13.878906 22.796875 -15.226562 21.671875 -16.34375 C 20.554688 -17.457031 19.207031 -18.015625 17.625 -18.015625 L 7.609375 -18.015625 C 6.023438 -18.015625 4.675781 -17.457031 3.5625 -16.34375 C 2.445312 -15.226562 1.890625 -13.878906 1.890625 -12.296875 L 1.890625 -5.734375 C 1.890625 -4.148438 2.445312 -2.796875 3.5625 -1.671875 C 4.675781 -0.554688 6.023438 0 7.609375 0 Z M 17.625 -2.859375 L 7.609375 -2.859375 C 6.816406 -2.859375 6.140625 -3.132812 5.578125 -3.6875 C 5.023438 -4.25 4.75 -4.929688 4.75 -5.734375 L 4.75 -12.296875 C 4.75 -13.085938 5.023438 -13.765625 5.578125 -14.328125 C 6.140625 -14.890625 6.816406 -15.171875 7.609375 -15.171875 L 17.625 -15.171875 C 18.414062 -15.171875 19.09375 -14.890625 19.65625 -14.328125 C 20.21875 -13.765625 20.5 -13.085938 20.5 -12.296875 L 20.5 -5.734375 C 20.5 -4.929688 20.21875 -4.25 19.65625 -3.6875 C 19.09375 -3.132812 18.414062 -2.859375 17.625 -2.859375 Z M 17.625 -2.859375 "/></g></g></g><g fill="#f5f6f5" fill-opacity="1"><g transform="translate(314.589864, 216.358183)"><g><path d="M 23.984375 0 L 22.046875 0 L 5.375 -13.578125 L 5.375 0 L 2.515625 0 L 2.515625 -18.015625 L 4.453125 -18.015625 L 21.125 -4.453125 L 21.125 -18.015625 L 23.984375 -18.015625 Z M 23.984375 0 "/></g></g></g><g fill="#e52024" fill-opacity="1"><g transform="translate(129.639389, 232.502439)"><g><path d="M 6.359375 0 C 6.929688 0 7.414062 -0.195312 7.8125 -0.59375 C 8.21875 -1 8.421875 -1.488281 8.421875 -2.0625 L 7.390625 -2.0625 C 7.390625 -1.78125 7.285156 -1.535156 7.078125 -1.328125 C 6.878906 -1.128906 6.640625 -1.03125 6.359375 -1.03125 L 2.75 -1.03125 C 2.457031 -1.03125 2.210938 -1.128906 2.015625 -1.328125 C 1.816406 -1.535156 1.71875 -1.78125 1.71875 -2.0625 L 1.71875 -4.4375 C 1.71875 -4.71875 1.816406 -4.957031 2.015625 -5.15625 C 2.210938 -5.363281 2.457031 -5.46875 2.75 -5.46875 L 6.359375 -5.46875 C 6.640625 -5.46875 6.878906 -5.363281 7.078125 -5.15625 C 7.285156 -4.957031 7.390625 -4.71875 7.390625 -4.4375 L 8.421875 -4.4375 C 8.421875 -5 8.21875 -5.484375 7.8125 -5.890625 C 7.414062 -6.296875 6.929688 -6.5 6.359375 -6.5 L 2.75 -6.5 C 2.175781 -6.5 1.6875 -6.296875 1.28125 -5.890625 C 0.882812 -5.484375 0.6875 -5 0.6875 -4.4375 L 0.6875 -2.0625 C 0.6875 -1.488281 0.882812 -1 1.28125 -0.59375 C 1.6875 -0.195312 2.175781 0 2.75 0 Z M 6.359375 0 "/></g></g></g><g fill="#e52024" fill-opacity="1"><g transform="translate(140.611505, 232.502439)"><g><path d="M 9.46875 0 L 8.21875 0 L 7.28125 -1.40625 L 2.34375 -1.40625 L 1.375 0 L 0.140625 0 L 4.53125 -6.5 L 5.078125 -6.5 Z M 6.578125 -2.4375 L 4.796875 -5.0625 L 3.03125 -2.4375 Z M 6.578125 -2.4375 "/></g></g></g><g fill="#e52024" fill-opacity="1"><g transform="translate(152.091225, 232.502439)"><g><path d="M 8.65625 0 L 7.625 0 L 7.625 -1.828125 C 7.625 -1.972656 7.570312 -2.09375 7.46875 -2.1875 C 7.363281 -2.289062 7.238281 -2.34375 7.09375 -2.34375 L 1.9375 -2.34375 L 1.9375 0 L 0.90625 0 L 0.90625 -6.5 L 7.09375 -6.5 C 7.519531 -6.5 7.882812 -6.347656 8.1875 -6.046875 C 8.5 -5.742188 8.65625 -5.378906 8.65625 -4.953125 L 8.65625 -3.890625 C 8.65625 -3.492188 8.519531 -3.148438 8.25 -2.859375 C 8.519531 -2.566406 8.65625 -2.222656 8.65625 -1.828125 Z M 7.09375 -3.375 C 7.238281 -3.375 7.363281 -3.425781 7.46875 -3.53125 C 7.570312 -3.632812 7.625 -3.753906 7.625 -3.890625 L 7.625 -4.953125 C 7.625 -5.097656 7.570312 -5.21875 7.46875 -5.3125 C 7.363281 -5.414062 7.238281 -5.46875 7.09375 -5.46875 L 1.9375 -5.46875 L 1.9375 -3.375 Z M 7.09375 -3.375 "/></g></g></g><g fill="#e52024" fill-opacity="1"><g transform="translate(163.28995, 232.502439)"><g/></g></g><g fill="#e52024" fill-opacity="1"><g transform="translate(167.459261, 232.502439)"><g><path d="M 6.359375 0 C 6.929688 0 7.414062 -0.195312 7.8125 -0.59375 C 8.21875 -1 8.421875 -1.488281 8.421875 -2.0625 L 7.390625 -2.0625 C 7.390625 -1.78125 7.285156 -1.535156 7.078125 -1.328125 C 6.878906 -1.128906 6.640625 -1.03125 6.359375 -1.03125 L 2.75 -1.03125 C 2.457031 -1.03125 2.210938 -1.128906 2.015625 -1.328125 C 1.816406 -1.535156 1.71875 -1.78125 1.71875 -2.0625 L 1.71875 -4.4375 C 1.71875 -4.71875 1.816406 -4.957031 2.015625 -5.15625 C 2.210938 -5.363281 2.457031 -5.46875 2.75 -5.46875 L 6.359375 -5.46875 C 6.640625 -5.46875 6.878906 -5.363281 7.078125 -5.15625 C 7.285156 -4.957031 7.390625 -4.71875 7.390625 -4.4375 L 8.421875 -4.4375 C 8.421875 -5 8.21875 -5.484375 7.8125 -5.890625 C 7.414062 -6.296875 6.929688 -6.5 6.359375 -6.5 L 2.75 -6.5 C 2.175781 -6.5 1.6875 -6.296875 1.28125 -5.890625 C 0.882812 -5.484375 0.6875 -5 0.6875 -4.4375 L 0.6875 -2.0625 C 0.6875 -1.488281 0.882812 -1 1.28125 -0.59375 C 1.6875 -0.195312 2.175781 0 2.75 0 Z M 6.359375 0 "/></g></g></g><g fill="#e52024" fill-opacity="1"><g transform="translate(178.431374, 232.502439)"><g><path d="M 6.359375 0 C 6.929688 0 7.414062 -0.195312 7.8125 -0.59375 C 8.21875 -1 8.421875 -1.488281 8.421875 -2.0625 L 8.421875 -4.4375 C 8.421875 -5 8.21875 -5.484375 7.8125 -5.890625 C 7.414062 -6.296875 6.929688 -6.5 6.359375 -6.5 L 2.75 -6.5 C 2.175781 -6.5 1.6875 -6.296875 1.28125 -5.890625 C 0.882812 -5.484375 0.6875 -5 0.6875 -4.4375 L 0.6875 -2.0625 C 0.6875 -1.488281 0.882812 -1 1.28125 -0.59375 C 1.6875 -0.195312 2.175781 0 2.75 0 Z M 6.359375 -1.03125 L 2.75 -1.03125 C 2.457031 -1.03125 2.210938 -1.128906 2.015625 -1.328125 C 1.816406 -1.535156 1.71875 -1.78125 1.71875 -2.0625 L 1.71875 -4.4375 C 1.71875 -4.71875 1.816406 -4.957031 2.015625 -5.15625 C 2.210938 -5.363281 2.457031 -5.46875 2.75 -5.46875 L 6.359375 -5.46875 C 6.640625 -5.46875 6.878906 -5.363281 7.078125 -5.15625 C 7.285156 -4.957031 7.390625 -4.71875 7.390625 -4.4375 L 7.390625 -2.0625 C 7.390625 -1.78125 7.285156 -1.535156 7.078125 -1.328125 C 6.878906 -1.128906 6.640625 -1.03125 6.359375 -1.03125 Z M 6.359375 -1.03125 "/></g></g></g><g fill="#e52024" fill-opacity="1"><g transform="translate(189.403487, 232.502439)"><g><path d="M 9.84375 0 L 8.8125 0 L 8.8125 -4.390625 L 5.640625 0 L 5.109375 0 L 1.9375 -4.390625 L 1.9375 0 L 0.90625 0 L 0.90625 -6.5 L 1.6875 -6.5 L 5.375 -1.390625 L 9.0625 -6.5 L 9.84375 -6.5 Z M 9.84375 0 "/></g></g></g><g fill="#e52024" fill-opacity="1"><g transform="translate(202.025315, 232.502439)"><g><path d="M 1.9375 0 L 0.90625 0 L 0.90625 -6.5 L 7.09375 -6.5 C 7.519531 -6.5 7.882812 -6.347656 8.1875 -6.046875 C 8.5 -5.742188 8.65625 -5.378906 8.65625 -4.953125 L 8.65625 -3.890625 C 8.65625 -3.460938 8.5 -3.097656 8.1875 -2.796875 C 7.882812 -2.492188 7.519531 -2.34375 7.09375 -2.34375 L 1.9375 -2.34375 Z M 7.09375 -3.375 C 7.238281 -3.375 7.363281 -3.425781 7.46875 -3.53125 C 7.570312 -3.632812 7.625 -3.753906 7.625 -3.890625 L 7.625 -4.953125 C 7.625 -5.097656 7.570312 -5.21875 7.46875 -5.3125 C 7.363281 -5.414062 7.238281 -5.46875 7.09375 -5.46875 L 1.9375 -5.46875 L 1.9375 -3.375 Z M 7.09375 -3.375 "/></g></g></g><g fill="#e52024" fill-opacity="1"><g transform="translate(213.224037, 232.502439)"><g><path d="M 9.46875 0 L 8.21875 0 L 7.28125 -1.40625 L 2.34375 -1.40625 L 1.375 0 L 0.140625 0 L 4.53125 -6.5 L 5.078125 -6.5 Z M 6.578125 -2.4375 L 4.796875 -5.0625 L 3.03125 -2.4375 Z M 6.578125 -2.4375 "/></g></g></g><g fill="#e52024" fill-opacity="1"><g transform="translate(224.703754, 232.502439)"><g><path d="M 8.65625 0 L 7.953125 0 L 1.9375 -4.90625 L 1.9375 0 L 0.90625 0 L 0.90625 -6.5 L 1.609375 -6.5 L 7.625 -1.609375 L 7.625 -6.5 L 8.65625 -6.5 Z M 8.65625 0 "/></g></g></g><g fill="#e52024" fill-opacity="1"><g transform="translate(236.129085, 232.502439)"><g><path d="M 5.125 0 L 4.09375 0 L 4.09375 -3.015625 L 0.140625 -6.5 L 1.6875 -6.5 L 4.609375 -3.9375 L 7.515625 -6.5 L 9.09375 -6.5 L 5.125 -3.015625 Z M 5.125 0 "/></g></g></g><g clip-path="url(#3c40eaf4f8)"><path fill="#f5f6f5" d="M 485.578125 203.511719 L 485.578125 207.210938 L 413.851562 207.210938 L 436.839844 184.234375 C 437.0625 184.421875 437.296875 184.597656 437.542969 184.757812 C 437.789062 184.914062 438.046875 185.058594 438.3125 185.183594 C 438.574219 185.3125 438.847656 185.421875 439.125 185.515625 C 439.40625 185.605469 439.6875 185.679688 439.976562 185.734375 C 440.265625 185.792969 440.554688 185.828125 440.847656 185.847656 C 441.140625 185.867188 441.433594 185.867188 441.726562 185.847656 C 442.019531 185.828125 442.308594 185.792969 442.597656 185.738281 C 442.886719 185.683594 443.171875 185.609375 443.449219 185.515625 C 443.726562 185.425781 444 185.316406 444.265625 185.1875 C 444.53125 185.0625 444.785156 184.921875 445.03125 184.761719 C 445.277344 184.601562 445.515625 184.429688 445.738281 184.238281 C 445.964844 184.050781 446.175781 183.847656 446.375 183.632812 C 446.570312 183.414062 446.757812 183.1875 446.925781 182.949219 C 447.09375 182.707031 447.25 182.457031 447.386719 182.199219 C 447.523438 181.941406 447.644531 181.671875 447.75 181.398438 C 447.851562 181.125 447.9375 180.84375 448.007812 180.558594 C 448.074219 180.273438 448.125 179.984375 448.15625 179.691406 C 448.1875 179.402344 448.199219 179.109375 448.191406 178.816406 C 448.1875 178.519531 448.160156 178.230469 448.117188 177.9375 C 448.074219 177.648438 448.011719 177.363281 447.933594 177.078125 C 447.855469 176.796875 447.757812 176.519531 447.640625 176.25 C 447.527344 175.980469 447.394531 175.71875 447.246094 175.464844 C 447.097656 175.214844 446.933594 174.96875 446.753906 174.738281 C 446.574219 174.507812 446.378906 174.285156 446.171875 174.078125 C 445.964844 173.871094 445.746094 173.675781 445.511719 173.5 C 445.28125 173.320312 445.039062 173.15625 444.785156 173.007812 C 444.53125 172.859375 444.269531 172.726562 444 172.609375 C 443.730469 172.496094 443.453125 172.398438 443.171875 172.316406 C 442.890625 172.238281 442.601562 172.175781 442.3125 172.132812 C 442.023438 172.089844 441.730469 172.066406 441.4375 172.058594 C 441.144531 172.050781 440.851562 172.066406 440.558594 172.097656 C 440.265625 172.128906 439.976562 172.175781 439.691406 172.246094 C 439.40625 172.3125 439.128906 172.398438 438.851562 172.503906 C 438.578125 172.605469 438.3125 172.726562 438.050781 172.863281 C 437.792969 173.003906 437.542969 173.15625 437.304688 173.324219 C 437.0625 173.496094 436.835938 173.679688 436.621094 173.878906 C 436.402344 174.078125 436.203125 174.289062 436.011719 174.511719 C 435.824219 174.738281 435.648438 174.972656 435.488281 175.21875 C 435.332031 175.464844 435.1875 175.722656 435.0625 175.988281 C 434.9375 176.25 434.828125 176.523438 434.734375 176.800781 C 434.644531 177.082031 434.570312 177.363281 434.515625 177.652344 C 434.457031 177.941406 434.421875 178.230469 434.402344 178.523438 C 434.382812 178.816406 434.382812 179.109375 434.402344 179.402344 C 434.421875 179.695312 434.460938 179.988281 434.515625 180.273438 C 434.570312 180.5625 434.644531 180.847656 434.738281 181.125 C 434.828125 181.402344 434.9375 181.675781 435.066406 181.941406 C 435.191406 182.207031 435.335938 182.460938 435.496094 182.707031 C 435.652344 182.953125 435.828125 183.1875 436.019531 183.414062 L 390.289062 229.144531 L 267.492188 229.144531 L 267.492188 230.3125 L 390.765625 230.3125 L 412.699219 208.382812 L 431.378906 208.382812 L 439.96875 216.953125 L 458.644531 216.953125 L 467.21875 208.382812 L 485.597656 208.382812 L 485.597656 212.054688 L 494.152344 212.054688 L 494.152344 203.5 Z M 492.980469 210.914062 L 486.734375 210.914062 L 486.734375 204.667969 L 492.980469 204.667969 Z M 492.980469 210.914062 " fill-opacity="1" fill-rule="nonzero"/></g><g clip-path="url(#affd0ef6d2)"><path fill="#f5f6f5" d="M 264.527344 203.511719 L 264.527344 207.210938 L 192.800781 207.210938 L 215.785156 184.234375 C 216.007812 184.421875 216.246094 184.597656 216.492188 184.757812 C 216.738281 184.914062 216.992188 185.058594 217.257812 185.183594 C 217.523438 185.3125 217.792969 185.421875 218.074219 185.515625 C 218.351562 185.605469 218.636719 185.679688 218.921875 185.734375 C 219.210938 185.792969 219.503906 185.828125 219.796875 185.847656 C 220.089844 185.867188 220.382812 185.867188 220.675781 185.847656 C 220.964844 185.828125 221.257812 185.792969 221.546875 185.738281 C 221.832031 185.683594 222.117188 185.609375 222.394531 185.515625 C 222.675781 185.425781 222.945312 185.316406 223.210938 185.1875 C 223.476562 185.0625 223.730469 184.921875 223.980469 184.761719 C 224.226562 184.601562 224.460938 184.429688 224.6875 184.238281 C 224.910156 184.050781 225.121094 183.847656 225.320312 183.632812 C 225.519531 183.414062 225.703125 183.1875 225.871094 182.949219 C 226.042969 182.707031 226.195312 182.457031 226.332031 182.199219 C 226.472656 181.941406 226.59375 181.671875 226.695312 181.398438 C 226.800781 181.125 226.886719 180.84375 226.953125 180.558594 C 227.023438 180.273438 227.070312 179.984375 227.101562 179.691406 C 227.132812 179.402344 227.144531 179.109375 227.140625 178.816406 C 227.132812 178.519531 227.109375 178.230469 227.066406 177.9375 C 227.023438 177.648438 226.960938 177.363281 226.878906 177.078125 C 226.800781 176.796875 226.703125 176.519531 226.589844 176.25 C 226.472656 175.980469 226.339844 175.71875 226.191406 175.464844 C 226.042969 175.214844 225.878906 174.96875 225.699219 174.738281 C 225.519531 174.507812 225.328125 174.285156 225.121094 174.078125 C 224.914062 173.871094 224.691406 173.675781 224.460938 173.5 C 224.226562 173.320312 223.984375 173.15625 223.730469 173.007812 C 223.480469 172.859375 223.21875 172.726562 222.945312 172.609375 C 222.675781 172.496094 222.402344 172.398438 222.117188 172.316406 C 221.835938 172.238281 221.550781 172.175781 221.257812 172.132812 C 220.96875 172.089844 220.675781 172.066406 220.382812 172.058594 C 220.089844 172.050781 219.796875 172.066406 219.507812 172.097656 C 219.214844 172.128906 218.925781 172.175781 218.640625 172.246094 C 218.355469 172.3125 218.074219 172.398438 217.800781 172.503906 C 217.523438 172.605469 217.257812 172.726562 217 172.863281 C 216.738281 173.003906 216.492188 173.15625 216.25 173.324219 C 216.011719 173.496094 215.785156 173.679688 215.566406 173.878906 C 215.351562 174.078125 215.148438 174.289062 214.960938 174.511719 C 214.769531 174.738281 214.597656 174.972656 214.4375 175.21875 C 214.277344 175.464844 214.136719 175.722656 214.007812 175.988281 C 213.882812 176.25 213.773438 176.523438 213.683594 176.800781 C 213.589844 177.082031 213.515625 177.363281 213.460938 177.652344 C 213.40625 177.941406 213.367188 178.230469 213.351562 178.523438 C 213.332031 178.816406 213.332031 179.109375 213.351562 179.402344 C 213.371094 179.695312 213.40625 179.988281 213.460938 180.273438 C 213.519531 180.5625 213.59375 180.847656 213.683594 181.125 C 213.777344 181.402344 213.886719 181.675781 214.011719 181.941406 C 214.140625 182.207031 214.28125 182.460938 214.441406 182.707031 C 214.601562 182.953125 214.777344 183.1875 214.964844 183.414062 L 169.234375 229.144531 L 46.441406 229.144531 L 46.441406 230.3125 L 169.714844 230.3125 L 191.648438 208.382812 L 210.324219 208.382812 L 218.917969 216.953125 L 237.59375 216.953125 L 246.167969 208.382812 L 264.542969 208.382812 L 264.542969 212.054688 L 273.101562 212.054688 L 273.101562 203.5 Z M 271.925781 210.914062 L 265.683594 210.914062 L 265.683594 204.667969 L 271.925781 204.667969 Z M 271.925781 210.914062 " fill-opacity="1" fill-rule="nonzero"/></g></svg>