<svg xmlns="http://www.w3.org/2000/svg" xmlns:xlink="http://www.w3.org/1999/xlink" width="500" zoomAndPan="magnify" viewBox="0 0 375 149.999998" height="200" preserveAspectRatio="xMidYMid meet" version="1.0"><defs><g/><clipPath id="672b0a511b"><path d="M 50.03125 38.074219 L 123.882812 38.074219 L 123.882812 111.925781 L 50.03125 111.925781 Z M 50.03125 38.074219 " clip-rule="nonzero"/></clipPath><clipPath id="43b7515101"><path d="M 86.957031 38.074219 C 66.5625 38.074219 50.03125 54.605469 50.03125 75 C 50.03125 95.394531 66.5625 111.925781 86.957031 111.925781 C 107.347656 111.925781 123.882812 95.394531 123.882812 75 C 123.882812 54.605469 107.347656 38.074219 86.957031 38.074219 Z M 86.957031 38.074219 " clip-rule="nonzero"/></clipPath><clipPath id="25066316a1"><path d="M 61.464844 69.824219 L 64 69.824219 L 64 73.867188 L 61.464844 73.867188 Z M 61.464844 69.824219 " clip-rule="nonzero"/></clipPath><clipPath id="7967e25349"><path d="M 62 65.738281 L 112.441406 65.738281 L 112.441406 75 L 62 75 Z M 62 65.738281 " clip-rule="nonzero"/></clipPath><clipPath id="6fc5134c63"><path d="M 79.625 74.1875 L 95.148438 74.1875 L 95.148438 76.238281 L 79.625 76.238281 Z M 79.625 74.1875 " clip-rule="nonzero"/></clipPath><clipPath id="b8fa1be755"><path d="M 102.496094 82.4375 L 114.496094 82.4375 L 114.496094 83.1875 L 102.496094 83.1875 Z M 102.496094 82.4375 " clip-rule="nonzero"/></clipPath><clipPath id="e92d9b24c2"><path d="M 59.460938 82.4375 L 71.460938 82.4375 L 71.460938 83.1875 L 59.460938 83.1875 Z M 59.460938 82.4375 " clip-rule="nonzero"/></clipPath></defs><g clip-path="url(#672b0a511b)"><g clip-path="url(#43b7515101)"><path fill="#000000" d="M 50.03125 38.074219 L 123.882812 38.074219 L 123.882812 111.925781 L 50.03125 111.925781 Z M 50.03125 38.074219 " fill-opacity="1" fill-rule="nonzero"/></g></g><path fill="#e52024" d="M 107.621094 71.976562 L 108.648438 73.105469 C 108.769531 73.238281 108.933594 73.324219 109.113281 73.347656 L 110.5625 73.527344 C 110.597656 73.53125 110.621094 73.558594 110.621094 73.59375 C 110.617188 73.628906 110.589844 73.65625 110.554688 73.65625 L 108.660156 73.65625 C 108.640625 73.65625 108.617188 73.644531 108.605469 73.625 L 107.519531 72.054688 C 107.5 72.027344 107.507812 71.992188 107.53125 71.96875 C 107.558594 71.949219 107.597656 71.953125 107.621094 71.976562 " fill-opacity="1" fill-rule="nonzero"/><g clip-path="url(#25066316a1)"><path fill="#e52024" d="M 61.445312 73.808594 L 62.929688 70.714844 C 62.9375 70.695312 62.9375 70.675781 62.929688 70.65625 C 62.921875 70.636719 62.90625 70.625 62.882812 70.617188 L 62.746094 70.566406 C 62.730469 70.5625 62.722656 70.546875 62.730469 70.53125 L 63.003906 69.871094 C 63.007812 69.859375 63.023438 69.851562 63.035156 69.851562 L 63.957031 69.972656 C 63.96875 69.972656 63.976562 69.980469 63.980469 69.988281 C 63.984375 69.996094 63.984375 70.007812 63.980469 70.015625 L 61.503906 73.835938 C 61.5 73.84375 61.488281 73.847656 61.476562 73.847656 C 61.472656 73.847656 61.464844 73.847656 61.460938 73.847656 C 61.445312 73.839844 61.441406 73.824219 61.445312 73.808594 " fill-opacity="1" fill-rule="nonzero"/></g><g clip-path="url(#7967e25349)"><path fill="#f5f6f5" d="M 62.230469 68.867188 L 62.273438 69.023438 C 62.394531 69.453125 62.832031 69.710938 63.269531 69.613281 C 63.425781 69.574219 63.566406 69.542969 63.644531 69.527344 C 63.769531 69.507812 63.910156 69.484375 64.058594 69.464844 C 64.207031 69.441406 64.363281 69.414062 64.53125 69.394531 C 64.699219 69.378906 64.878906 69.355469 65.066406 69.335938 C 65.25 69.3125 65.449219 69.300781 65.65625 69.28125 C 65.757812 69.273438 65.859375 69.265625 65.96875 69.253906 C 66.074219 69.25 66.1875 69.242188 66.296875 69.234375 C 66.519531 69.222656 66.75 69.207031 66.992188 69.195312 C 67.949219 69.148438 69.035156 69.132812 70.222656 69.136719 C 71.410156 69.148438 72.699219 69.1875 74.0625 69.25 C 75.425781 69.308594 76.863281 69.394531 78.351562 69.5 C 79.09375 69.550781 79.851562 69.609375 80.617188 69.667969 C 81.382812 69.730469 82.15625 69.800781 82.9375 69.871094 C 84.496094 70.011719 86.082031 70.167969 87.664062 70.328125 C 88.457031 70.410156 89.25 70.488281 90.039062 70.570312 C 90.4375 70.609375 90.832031 70.648438 91.222656 70.6875 C 91.421875 70.703125 91.617188 70.722656 91.8125 70.742188 C 92.007812 70.757812 92.210938 70.773438 92.40625 70.789062 C 93.191406 70.851562 93.976562 70.882812 94.75 70.882812 C 95.527344 70.890625 96.292969 70.855469 97.042969 70.796875 C 97.792969 70.734375 98.519531 70.65625 99.234375 70.601562 C 99.945312 70.542969 100.644531 70.507812 101.324219 70.488281 C 101.496094 70.488281 101.664062 70.484375 101.832031 70.480469 C 101.917969 70.480469 102 70.480469 102.085938 70.480469 L 102.148438 70.476562 L 102.207031 70.480469 L 102.328125 70.480469 C 102.410156 70.484375 102.492188 70.484375 102.570312 70.488281 C 102.652344 70.492188 102.734375 70.5 102.8125 70.503906 C 102.972656 70.511719 103.132812 70.535156 103.289062 70.554688 C 103.914062 70.632812 104.515625 70.765625 105.085938 70.917969 C 106.230469 71.222656 107.246094 71.609375 108.132812 71.984375 C 109.019531 72.367188 109.773438 72.738281 110.386719 73.0625 C 111.003906 73.378906 111.476562 73.648438 111.792969 73.839844 C 111.953125 73.933594 112.074219 74.007812 112.15625 74.058594 C 112.179688 74.070312 112.203125 74.078125 112.230469 74.078125 C 112.277344 74.078125 112.324219 74.054688 112.351562 74.011719 C 112.464844 73.824219 112.402344 73.578125 112.210938 73.46875 C 112.164062 73.441406 112.109375 73.414062 112.054688 73.378906 C 111.726562 73.195312 111.242188 72.929688 110.617188 72.613281 C 109.988281 72.296875 109.21875 71.933594 108.3125 71.558594 C 107.410156 71.183594 106.375 70.789062 105.203125 70.480469 C 104.617188 70.328125 103.996094 70.195312 103.34375 70.117188 C 103.179688 70.097656 103.015625 70.074219 102.847656 70.066406 C 102.761719 70.058594 102.679688 70.054688 102.59375 70.046875 C 102.511719 70.042969 102.425781 70.042969 102.339844 70.042969 L 102.210938 70.039062 L 102.082031 70.039062 C 101.996094 70.039062 101.914062 70.039062 101.828125 70.039062 C 101.660156 70.042969 101.492188 70.042969 101.320312 70.046875 C 100.628906 70.0625 99.921875 70.097656 99.199219 70.152344 C 98.480469 70.207031 97.75 70.285156 97.007812 70.339844 C 96.269531 70.398438 95.519531 70.429688 94.753906 70.421875 C 93.992188 70.414062 93.222656 70.371094 92.445312 70.300781 C 92.25 70.28125 92.058594 70.265625 91.863281 70.246094 C 91.667969 70.226562 91.472656 70.207031 91.277344 70.183594 C 90.882812 70.140625 90.492188 70.097656 90.097656 70.054688 C 89.308594 69.964844 88.515625 69.878906 87.726562 69.789062 C 84.558594 69.429688 81.386719 69.09375 78.40625 68.839844 C 77.78125 68.789062 77.167969 68.738281 76.5625 68.691406 C 76.507812 68.6875 76.457031 68.683594 76.40625 68.679688 C 76.476562 68.648438 76.558594 68.617188 76.644531 68.582031 C 77.484375 68.246094 78.972656 67.730469 81.289062 67.195312 C 83.738281 66.628906 86.523438 66.761719 88.503906 66.992188 C 89.886719 67.152344 91.246094 67.46875 92.550781 67.941406 C 92.558594 67.941406 92.5625 67.945312 92.570312 67.945312 C 94.144531 68.515625 95.417969 69.109375 96.292969 69.546875 C 96.726562 69.765625 97.066406 69.949219 97.292969 70.078125 C 97.371094 70.117188 97.4375 70.160156 97.492188 70.191406 C 97.492188 70.191406 97.492188 70.195312 97.496094 70.195312 C 97.496094 70.195312 97.496094 70.195312 97.5 70.195312 C 97.554688 70.226562 97.632812 70.238281 97.644531 70.238281 C 97.765625 70.234375 97.992188 70.214844 98.152344 70.199219 C 98.160156 70.199219 98.167969 70.195312 98.175781 70.195312 C 98.175781 70.195312 98.179688 70.195312 98.179688 70.195312 C 98.296875 70.179688 98.253906 70.132812 98.21875 70.109375 C 98.21875 70.109375 98.214844 70.105469 98.214844 70.105469 C 98.210938 70.105469 98.207031 70.101562 98.203125 70.101562 C 98.203125 70.097656 98.199219 70.097656 98.195312 70.09375 C 98.035156 69.996094 97.796875 69.847656 97.78125 69.839844 C 97.722656 69.804688 97.632812 69.753906 97.519531 69.6875 C 97.285156 69.554688 96.945312 69.363281 96.503906 69.132812 C 95.625 68.675781 94.347656 68.058594 92.753906 67.457031 C 91.957031 67.15625 91.082031 66.863281 90.140625 66.601562 C 89.199219 66.34375 88.191406 66.121094 87.132812 65.96875 C 86.074219 65.820312 84.964844 65.75 83.839844 65.796875 C 83.699219 65.800781 83.558594 65.816406 83.417969 65.824219 L 83.203125 65.839844 L 83.097656 65.847656 L 82.992188 65.859375 C 82.714844 65.886719 82.4375 65.914062 82.160156 65.941406 C 81.601562 65.996094 81.039062 66.0625 80.476562 66.121094 C 79.355469 66.246094 78.234375 66.378906 77.132812 66.515625 C 76.582031 66.585938 76.039062 66.65625 75.496094 66.726562 C 74.957031 66.796875 74.425781 66.867188 73.902344 66.9375 C 73.378906 67.011719 72.863281 67.082031 72.359375 67.152344 C 71.855469 67.222656 71.363281 67.296875 70.882812 67.367188 C 70.746094 67.390625 70.609375 67.410156 70.472656 67.429688 C 70.371094 67.445312 70.273438 67.460938 70.175781 67.476562 L 76.546875 68.597656 C 76.546875 68.597656 76.542969 68.597656 76.527344 68.597656 C 76.523438 68.597656 76.519531 68.59375 76.515625 68.59375 C 76.222656 68.570312 73.984375 68.40625 71.246094 68.34375 C 68.199219 68.273438 64.527344 68.332031 62.230469 68.867188 " fill-opacity="1" fill-rule="nonzero"/></g><path fill="#f5f6f5" d="M 92.074219 69.578125 L 92.074219 69.402344 C 92.074219 69.289062 92.136719 69.179688 92.238281 69.125 L 92.582031 68.9375 C 92.707031 68.867188 92.859375 68.859375 92.992188 68.910156 L 94.449219 69.464844 C 94.53125 69.496094 94.585938 69.574219 94.585938 69.664062 L 94.585938 69.933594 C 94.585938 69.957031 94.578125 69.980469 94.5625 69.996094 L 94.375 70.207031 C 94.355469 70.230469 94.332031 70.242188 94.300781 70.242188 L 93.507812 70.242188 C 93.472656 70.242188 93.441406 70.222656 93.421875 70.195312 C 93.40625 70.164062 93.40625 70.128906 93.421875 70.097656 L 93.472656 70.003906 L 92.238281 69.777344 C 92.144531 69.757812 92.074219 69.675781 92.074219 69.578125 " fill-opacity="1" fill-rule="nonzero"/><path fill="#f5f6f5" d="M 75.503906 69.957031 L 76.523438 69.609375 C 76.550781 69.597656 76.585938 69.605469 76.601562 69.628906 C 76.617188 69.652344 76.613281 69.679688 76.589844 69.699219 L 76.042969 70.097656 C 75.996094 70.132812 75.984375 70.1875 76.011719 70.234375 L 78.527344 74.234375 L 79.757812 75.070312 C 79.785156 75.085938 79.789062 75.117188 79.769531 75.140625 C 79.757812 75.15625 79.738281 75.164062 79.71875 75.164062 C 79.707031 75.164062 79.695312 75.160156 79.683594 75.15625 L 78.335938 74.402344 C 78.328125 74.398438 78.320312 74.390625 78.316406 74.386719 L 75.46875 70.03125 C 75.460938 70.019531 75.460938 70.003906 75.464844 69.988281 C 75.472656 69.972656 75.484375 69.960938 75.503906 69.957031 " fill-opacity="1" fill-rule="nonzero"/><g clip-path="url(#6fc5134c63)"><path fill="#f5f6f5" d="M 79.6875 74.210938 C 79.6875 74.199219 79.703125 74.1875 79.722656 74.191406 L 94.410156 75.703125 C 94.417969 75.707031 94.429688 75.710938 94.433594 75.71875 C 94.4375 75.726562 94.4375 75.738281 94.433594 75.746094 L 94.277344 75.957031 L 95.074219 76.203125 C 95.089844 76.207031 95.097656 76.222656 95.09375 76.234375 C 95.089844 76.246094 95.078125 76.253906 95.0625 76.253906 C 95.058594 76.253906 95.058594 76.253906 95.058594 76.253906 L 79.714844 74.242188 C 79.695312 74.242188 79.683594 74.226562 79.6875 74.210938 " fill-opacity="1" fill-rule="nonzero"/></g><path fill="#f5f6f5" d="M 102.441406 71.828125 C 104.074219 71.828125 105.601562 72.707031 106.425781 74.125 C 106.449219 74.164062 106.4375 74.21875 106.398438 74.242188 C 106.382812 74.253906 106.363281 74.257812 106.347656 74.257812 C 106.320312 74.257812 106.292969 74.246094 106.277344 74.21875 C 105.410156 72.980469 103.941406 72.207031 102.441406 72.207031 C 101.089844 72.207031 99.691406 72.863281 98.792969 73.917969 C 98.761719 73.957031 98.710938 73.960938 98.671875 73.933594 C 98.632812 73.902344 98.625 73.851562 98.652344 73.8125 C 99.515625 72.570312 100.929688 71.828125 102.441406 71.828125 " fill-opacity="1" fill-rule="nonzero"/><path fill="#f5f6f5" d="M 69.320312 70.867188 C 70.957031 70.867188 72.484375 71.746094 73.308594 73.160156 C 73.332031 73.203125 73.320312 73.253906 73.277344 73.28125 C 73.261719 73.292969 73.246094 73.296875 73.230469 73.296875 C 73.199219 73.296875 73.171875 73.28125 73.15625 73.257812 C 72.289062 72.015625 70.820312 71.246094 69.320312 71.246094 C 67.96875 71.246094 66.570312 71.902344 65.671875 72.957031 C 65.640625 72.992188 65.589844 73 65.550781 72.96875 C 65.511719 72.941406 65.503906 72.886719 65.53125 72.847656 C 66.394531 71.605469 67.8125 70.867188 69.320312 70.867188 " fill-opacity="1" fill-rule="nonzero"/><path fill="#f5f6f5" d="M 98.152344 70.199219 C 98.160156 70.199219 98.167969 70.199219 98.175781 70.195312 C 98.167969 70.195312 98.160156 70.199219 98.152344 70.199219 " fill-opacity="1" fill-rule="nonzero"/><g fill="#f5f6f5" fill-opacity="1"><g transform="translate(57.052861, 80.617935)"><g><path d="M 3.703125 0 L 3.703125 -0.5625 L 1.046875 -0.5625 L 1.046875 -3.515625 L 0.484375 -3.515625 L 0.484375 0 Z M 3.703125 0 "/></g></g></g><g fill="#f5f6f5" fill-opacity="1"><g transform="translate(62.599869, 80.617935)"><g><path d="M 3.4375 0 C 3.75 0 4.007812 -0.109375 4.21875 -0.328125 C 4.4375 -0.546875 4.546875 -0.804688 4.546875 -1.109375 L 4.546875 -3.515625 L 4 -3.515625 L 4 -1.109375 C 4 -0.960938 3.941406 -0.832031 3.828125 -0.71875 C 3.722656 -0.613281 3.59375 -0.5625 3.4375 -0.5625 L 1.484375 -0.5625 C 1.328125 -0.5625 1.191406 -0.613281 1.078125 -0.71875 C 0.972656 -0.832031 0.921875 -0.960938 0.921875 -1.109375 L 0.921875 -3.515625 L 0.375 -3.515625 L 0.375 -1.109375 C 0.375 -0.804688 0.476562 -0.546875 0.6875 -0.328125 C 0.90625 -0.109375 1.171875 0 1.484375 0 Z M 3.4375 0 "/></g></g></g><g fill="#f5f6f5" fill-opacity="1"><g transform="translate(69.189061, 80.617935)"><g><path d="M 4.90625 0 L 4.0625 0 L 2.484375 -1.390625 L 0.921875 0 L 0.078125 0 L 2.0625 -1.75 L 0.078125 -3.515625 L 0.921875 -3.515625 L 2.484375 -2.125 L 4.0625 -3.515625 L 4.90625 -3.515625 L 2.90625 -1.75 Z M 4.90625 0 "/></g></g></g><g fill="#f5f6f5" fill-opacity="1"><g transform="translate(75.84186, 80.617935)"><g><path d="M 4.390625 0 L 0.484375 0 L 0.484375 -3.515625 L 4.390625 -3.515625 L 4.390625 -2.953125 L 1.046875 -2.953125 L 1.046875 -2.03125 L 4 -2.03125 L 4 -1.484375 L 1.046875 -1.484375 L 1.046875 -0.5625 L 4.390625 -0.5625 Z M 4.390625 0 "/></g></g></g><g fill="#f5f6f5" fill-opacity="1"><g transform="translate(82.274481, 80.617935)"><g><path d="M 5.328125 0 L 4.765625 0 L 4.765625 -2.375 L 3.046875 0 L 2.765625 0 L 1.046875 -2.375 L 1.046875 0 L 0.484375 0 L 0.484375 -3.515625 L 0.90625 -3.515625 L 2.90625 -0.75 L 4.90625 -3.515625 L 5.328125 -3.515625 Z M 5.328125 0 "/></g></g></g><g fill="#f5f6f5" fill-opacity="1"><g transform="translate(89.754179, 80.617935)"><g><path d="M 3.4375 0 C 3.75 0 4.007812 -0.109375 4.21875 -0.328125 C 4.4375 -0.546875 4.546875 -0.804688 4.546875 -1.109375 L 4.546875 -2.390625 C 4.546875 -2.703125 4.4375 -2.96875 4.21875 -3.1875 C 4.007812 -3.40625 3.75 -3.515625 3.4375 -3.515625 L 1.484375 -3.515625 C 1.171875 -3.515625 0.90625 -3.40625 0.6875 -3.1875 C 0.476562 -2.96875 0.375 -2.703125 0.375 -2.390625 L 0.375 -1.109375 C 0.375 -0.804688 0.476562 -0.546875 0.6875 -0.328125 C 0.90625 -0.109375 1.171875 0 1.484375 0 Z M 3.4375 -0.5625 L 1.484375 -0.5625 C 1.328125 -0.5625 1.191406 -0.613281 1.078125 -0.71875 C 0.972656 -0.832031 0.921875 -0.960938 0.921875 -1.109375 L 0.921875 -2.390625 C 0.921875 -2.546875 0.972656 -2.675781 1.078125 -2.78125 C 1.191406 -2.894531 1.328125 -2.953125 1.484375 -2.953125 L 3.4375 -2.953125 C 3.59375 -2.953125 3.722656 -2.894531 3.828125 -2.78125 C 3.941406 -2.675781 4 -2.546875 4 -2.390625 L 4 -1.109375 C 4 -0.960938 3.941406 -0.832031 3.828125 -0.71875 C 3.722656 -0.613281 3.59375 -0.5625 3.4375 -0.5625 Z M 3.4375 -0.5625 "/></g></g></g><g fill="#f5f6f5" fill-opacity="1"><g transform="translate(96.34337, 80.617935)"><g><path d="M 2.21875 0 L 1.65625 0 L 1.65625 -2.953125 L 0.078125 -2.953125 L 0.078125 -3.515625 L 3.8125 -3.515625 L 3.8125 -2.953125 L 2.21875 -2.953125 Z M 2.21875 0 "/></g></g></g><g fill="#f5f6f5" fill-opacity="1"><g transform="translate(101.900164, 80.617935)"><g><path d="M 1.046875 0 L 1.046875 -3.515625 L 0.484375 -3.515625 L 0.484375 0 Z M 1.046875 0 "/></g></g></g><g fill="#f5f6f5" fill-opacity="1"><g transform="translate(105.11082, 80.617935)"><g><path d="M 3.4375 0 C 3.75 0 4.007812 -0.109375 4.21875 -0.328125 C 4.4375 -0.546875 4.546875 -0.804688 4.546875 -1.109375 L 4.546875 -2.390625 C 4.546875 -2.703125 4.4375 -2.96875 4.21875 -3.1875 C 4.007812 -3.40625 3.75 -3.515625 3.4375 -3.515625 L 1.484375 -3.515625 C 1.171875 -3.515625 0.90625 -3.40625 0.6875 -3.1875 C 0.476562 -2.96875 0.375 -2.703125 0.375 -2.390625 L 0.375 -1.109375 C 0.375 -0.804688 0.476562 -0.546875 0.6875 -0.328125 C 0.90625 -0.109375 1.171875 0 1.484375 0 Z M 3.4375 -0.5625 L 1.484375 -0.5625 C 1.328125 -0.5625 1.191406 -0.613281 1.078125 -0.71875 C 0.972656 -0.832031 0.921875 -0.960938 0.921875 -1.109375 L 0.921875 -2.390625 C 0.921875 -2.546875 0.972656 -2.675781 1.078125 -2.78125 C 1.191406 -2.894531 1.328125 -2.953125 1.484375 -2.953125 L 3.4375 -2.953125 C 3.59375 -2.953125 3.722656 -2.894531 3.828125 -2.78125 C 3.941406 -2.675781 4 -2.546875 4 -2.390625 L 4 -1.109375 C 4 -0.960938 3.941406 -0.832031 3.828125 -0.71875 C 3.722656 -0.613281 3.59375 -0.5625 3.4375 -0.5625 Z M 3.4375 -0.5625 "/></g></g></g><g fill="#f5f6f5" fill-opacity="1"><g transform="translate(111.700012, 80.617935)"><g><path d="M 4.671875 0 L 4.296875 0 L 1.046875 -2.640625 L 1.046875 0 L 0.484375 0 L 0.484375 -3.515625 L 0.859375 -3.515625 L 4.109375 -0.859375 L 4.109375 -3.515625 L 4.671875 -3.515625 Z M 4.671875 0 "/></g></g></g><g fill="#e52024" fill-opacity="1"><g transform="translate(75.69136, 83.761119)"><g><path d="M 1.234375 0 C 1.347656 0 1.441406 -0.0351562 1.515625 -0.109375 C 1.597656 -0.191406 1.640625 -0.289062 1.640625 -0.40625 L 1.4375 -0.40625 C 1.4375 -0.34375 1.414062 -0.289062 1.375 -0.25 C 1.34375 -0.21875 1.296875 -0.203125 1.234375 -0.203125 L 0.53125 -0.203125 C 0.476562 -0.203125 0.429688 -0.21875 0.390625 -0.25 C 0.347656 -0.289062 0.328125 -0.34375 0.328125 -0.40625 L 0.328125 -0.859375 C 0.328125 -0.921875 0.347656 -0.96875 0.390625 -1 C 0.429688 -1.039062 0.476562 -1.0625 0.53125 -1.0625 L 1.234375 -1.0625 C 1.296875 -1.0625 1.34375 -1.039062 1.375 -1 C 1.414062 -0.96875 1.4375 -0.921875 1.4375 -0.859375 L 1.640625 -0.859375 C 1.640625 -0.972656 1.597656 -1.066406 1.515625 -1.140625 C 1.441406 -1.222656 1.347656 -1.265625 1.234375 -1.265625 L 0.53125 -1.265625 C 0.425781 -1.265625 0.332031 -1.222656 0.25 -1.140625 C 0.164062 -1.066406 0.125 -0.972656 0.125 -0.859375 L 0.125 -0.40625 C 0.125 -0.289062 0.164062 -0.191406 0.25 -0.109375 C 0.332031 -0.0351562 0.425781 0 0.53125 0 Z M 1.234375 0 "/></g></g></g><g fill="#e52024" fill-opacity="1"><g transform="translate(77.827559, 83.761119)"><g><path d="M 1.84375 0 L 1.609375 0 L 1.421875 -0.28125 L 0.453125 -0.28125 L 0.265625 0 L 0.03125 0 L 0.890625 -1.265625 L 0.984375 -1.265625 Z M 1.28125 -0.484375 L 0.9375 -0.984375 L 0.59375 -0.484375 Z M 1.28125 -0.484375 "/></g></g></g><g fill="#e52024" fill-opacity="1"><g transform="translate(80.062586, 83.761119)"><g><path d="M 1.6875 0 L 1.484375 0 L 1.484375 -0.359375 C 1.484375 -0.390625 1.472656 -0.410156 1.453125 -0.421875 C 1.429688 -0.441406 1.410156 -0.453125 1.390625 -0.453125 L 0.375 -0.453125 L 0.375 0 L 0.171875 0 L 0.171875 -1.265625 L 1.390625 -1.265625 C 1.472656 -1.265625 1.539062 -1.234375 1.59375 -1.171875 C 1.65625 -1.117188 1.6875 -1.050781 1.6875 -0.96875 L 1.6875 -0.765625 C 1.6875 -0.679688 1.660156 -0.613281 1.609375 -0.5625 C 1.660156 -0.5 1.6875 -0.429688 1.6875 -0.359375 Z M 1.390625 -0.65625 C 1.410156 -0.65625 1.429688 -0.664062 1.453125 -0.6875 C 1.472656 -0.707031 1.484375 -0.734375 1.484375 -0.765625 L 1.484375 -0.96875 C 1.484375 -1 1.472656 -1.019531 1.453125 -1.03125 C 1.429688 -1.050781 1.410156 -1.0625 1.390625 -1.0625 L 0.375 -1.0625 L 0.375 -0.65625 Z M 1.390625 -0.65625 "/></g></g></g><g fill="#e52024" fill-opacity="1"><g transform="translate(82.242905, 83.761119)"><g/></g></g><g fill="#e52024" fill-opacity="1"><g transform="translate(83.054643, 83.761119)"><g><path d="M 1.234375 0 C 1.347656 0 1.441406 -0.0351562 1.515625 -0.109375 C 1.597656 -0.191406 1.640625 -0.289062 1.640625 -0.40625 L 1.4375 -0.40625 C 1.4375 -0.34375 1.414062 -0.289062 1.375 -0.25 C 1.34375 -0.21875 1.296875 -0.203125 1.234375 -0.203125 L 0.53125 -0.203125 C 0.476562 -0.203125 0.429688 -0.21875 0.390625 -0.25 C 0.347656 -0.289062 0.328125 -0.34375 0.328125 -0.40625 L 0.328125 -0.859375 C 0.328125 -0.921875 0.347656 -0.96875 0.390625 -1 C 0.429688 -1.039062 0.476562 -1.0625 0.53125 -1.0625 L 1.234375 -1.0625 C 1.296875 -1.0625 1.34375 -1.039062 1.375 -1 C 1.414062 -0.96875 1.4375 -0.921875 1.4375 -0.859375 L 1.640625 -0.859375 C 1.640625 -0.972656 1.597656 -1.066406 1.515625 -1.140625 C 1.441406 -1.222656 1.347656 -1.265625 1.234375 -1.265625 L 0.53125 -1.265625 C 0.425781 -1.265625 0.332031 -1.222656 0.25 -1.140625 C 0.164062 -1.066406 0.125 -0.972656 0.125 -0.859375 L 0.125 -0.40625 C 0.125 -0.289062 0.164062 -0.191406 0.25 -0.109375 C 0.332031 -0.0351562 0.425781 0 0.53125 0 Z M 1.234375 0 "/></g></g></g><g fill="#e52024" fill-opacity="1"><g transform="translate(85.190842, 83.761119)"><g><path d="M 1.234375 0 C 1.347656 0 1.441406 -0.0351562 1.515625 -0.109375 C 1.597656 -0.191406 1.640625 -0.289062 1.640625 -0.40625 L 1.640625 -0.859375 C 1.640625 -0.972656 1.597656 -1.066406 1.515625 -1.140625 C 1.441406 -1.222656 1.347656 -1.265625 1.234375 -1.265625 L 0.53125 -1.265625 C 0.425781 -1.265625 0.332031 -1.222656 0.25 -1.140625 C 0.164062 -1.066406 0.125 -0.972656 0.125 -0.859375 L 0.125 -0.40625 C 0.125 -0.289062 0.164062 -0.191406 0.25 -0.109375 C 0.332031 -0.0351562 0.425781 0 0.53125 0 Z M 1.234375 -0.203125 L 0.53125 -0.203125 C 0.476562 -0.203125 0.429688 -0.21875 0.390625 -0.25 C 0.347656 -0.289062 0.328125 -0.34375 0.328125 -0.40625 L 0.328125 -0.859375 C 0.328125 -0.921875 0.347656 -0.96875 0.390625 -1 C 0.429688 -1.039062 0.476562 -1.0625 0.53125 -1.0625 L 1.234375 -1.0625 C 1.296875 -1.0625 1.34375 -1.039062 1.375 -1 C 1.414062 -0.96875 1.4375 -0.921875 1.4375 -0.859375 L 1.4375 -0.40625 C 1.4375 -0.34375 1.414062 -0.289062 1.375 -0.25 C 1.34375 -0.21875 1.296875 -0.203125 1.234375 -0.203125 Z M 1.234375 -0.203125 "/></g></g></g><g fill="#e52024" fill-opacity="1"><g transform="translate(87.327041, 83.761119)"><g><path d="M 1.921875 0 L 1.71875 0 L 1.71875 -0.859375 L 1.109375 0 L 1 0 L 0.375 -0.859375 L 0.375 0 L 0.171875 0 L 0.171875 -1.265625 L 0.328125 -1.265625 L 1.046875 -0.265625 L 1.765625 -1.265625 L 1.921875 -1.265625 Z M 1.921875 0 "/></g></g></g><g fill="#e52024" fill-opacity="1"><g transform="translate(89.784428, 83.761119)"><g><path d="M 0.375 0 L 0.171875 0 L 0.171875 -1.265625 L 1.390625 -1.265625 C 1.472656 -1.265625 1.539062 -1.234375 1.59375 -1.171875 C 1.65625 -1.117188 1.6875 -1.050781 1.6875 -0.96875 L 1.6875 -0.765625 C 1.6875 -0.679688 1.65625 -0.609375 1.59375 -0.546875 C 1.539062 -0.484375 1.472656 -0.453125 1.390625 -0.453125 L 0.375 -0.453125 Z M 1.390625 -0.65625 C 1.410156 -0.65625 1.429688 -0.664062 1.453125 -0.6875 C 1.472656 -0.707031 1.484375 -0.734375 1.484375 -0.765625 L 1.484375 -0.96875 C 1.484375 -1 1.472656 -1.019531 1.453125 -1.03125 C 1.429688 -1.050781 1.410156 -1.0625 1.390625 -1.0625 L 0.375 -1.0625 L 0.375 -0.65625 Z M 1.390625 -0.65625 "/></g></g></g><g fill="#e52024" fill-opacity="1"><g transform="translate(91.964747, 83.761119)"><g><path d="M 1.84375 0 L 1.609375 0 L 1.421875 -0.28125 L 0.453125 -0.28125 L 0.265625 0 L 0.03125 0 L 0.890625 -1.265625 L 0.984375 -1.265625 Z M 1.28125 -0.484375 L 0.9375 -0.984375 L 0.59375 -0.484375 Z M 1.28125 -0.484375 "/></g></g></g><g fill="#e52024" fill-opacity="1"><g transform="translate(94.199773, 83.761119)"><g><path d="M 1.6875 0 L 1.546875 0 L 0.375 -0.953125 L 0.375 0 L 0.171875 0 L 0.171875 -1.265625 L 0.3125 -1.265625 L 1.484375 -0.3125 L 1.484375 -1.265625 L 1.6875 -1.265625 Z M 1.6875 0 "/></g></g></g><g fill="#e52024" fill-opacity="1"><g transform="translate(96.424211, 83.761119)"><g><path d="M 1 0 L 0.796875 0 L 0.796875 -0.59375 L 0.03125 -1.265625 L 0.328125 -1.265625 L 0.90625 -0.765625 L 1.46875 -1.265625 L 1.78125 -1.265625 L 1 -0.59375 Z M 1 0 "/></g></g></g><g clip-path="url(#b8fa1be755)"><path fill="#f5f6f5" d="M 144.988281 78.113281 L 144.988281 78.835938 L 131.023438 78.835938 L 135.5 74.359375 C 135.585938 74.433594 135.683594 74.496094 135.785156 74.546875 C 135.890625 74.59375 135.996094 74.632812 136.109375 74.652344 C 136.222656 74.675781 136.335938 74.683594 136.449219 74.675781 C 136.566406 74.667969 136.675781 74.644531 136.785156 74.609375 C 136.894531 74.574219 137 74.527344 137.09375 74.464844 C 137.191406 74.402344 137.277344 74.328125 137.355469 74.242188 C 137.433594 74.160156 137.5 74.066406 137.554688 73.964844 C 137.605469 73.863281 137.648438 73.757812 137.671875 73.644531 C 137.699219 73.535156 137.710938 73.421875 137.710938 73.304688 C 137.707031 73.191406 137.691406 73.078125 137.660156 72.96875 C 137.628906 72.859375 137.582031 72.753906 137.527344 72.652344 C 137.46875 72.554688 137.398438 72.464844 137.316406 72.382812 C 137.234375 72.300781 137.144531 72.234375 137.046875 72.175781 C 136.949219 72.117188 136.84375 72.070312 136.730469 72.039062 C 136.621094 72.007812 136.507812 71.992188 136.394531 71.992188 C 136.28125 71.988281 136.167969 72 136.054688 72.027344 C 135.945312 72.054688 135.835938 72.09375 135.734375 72.148438 C 135.632812 72.203125 135.542969 72.265625 135.457031 72.34375 C 135.371094 72.421875 135.300781 72.507812 135.238281 72.605469 C 135.175781 72.703125 135.125 72.804688 135.089844 72.914062 C 135.054688 73.023438 135.03125 73.132812 135.023438 73.25 C 135.019531 73.363281 135.023438 73.476562 135.046875 73.589844 C 135.070312 73.703125 135.105469 73.8125 135.15625 73.914062 C 135.203125 74.019531 135.265625 74.113281 135.339844 74.199219 L 126.4375 83.105469 L 102.53125 83.105469 L 102.53125 83.332031 L 126.53125 83.332031 L 130.800781 79.0625 L 134.4375 79.0625 L 136.109375 80.730469 L 139.746094 80.730469 L 141.414062 79.0625 L 144.992188 79.0625 L 144.992188 79.777344 L 146.65625 79.777344 L 146.65625 78.109375 Z M 146.429688 79.554688 L 145.214844 79.554688 L 145.214844 78.339844 L 146.429688 78.339844 Z M 146.429688 79.554688 " fill-opacity="1" fill-rule="nonzero"/></g><g clip-path="url(#e92d9b24c2)"><path fill="#f5f6f5" d="M 101.949219 78.113281 L 101.949219 78.835938 L 87.988281 78.835938 L 92.460938 74.359375 C 92.550781 74.433594 92.644531 74.496094 92.75 74.546875 C 92.851562 74.59375 92.960938 74.632812 93.074219 74.652344 C 93.183594 74.675781 93.300781 74.683594 93.414062 74.675781 C 93.527344 74.667969 93.640625 74.644531 93.75 74.609375 C 93.859375 74.574219 93.960938 74.527344 94.058594 74.464844 C 94.152344 74.402344 94.242188 74.328125 94.316406 74.242188 C 94.394531 74.160156 94.460938 74.066406 94.515625 73.964844 C 94.570312 73.863281 94.609375 73.757812 94.636719 73.644531 C 94.664062 73.535156 94.675781 73.421875 94.671875 73.304688 C 94.671875 73.191406 94.652344 73.078125 94.621094 72.96875 C 94.589844 72.859375 94.546875 72.753906 94.488281 72.652344 C 94.429688 72.554688 94.359375 72.464844 94.277344 72.382812 C 94.199219 72.300781 94.109375 72.234375 94.007812 72.175781 C 93.910156 72.117188 93.804688 72.070312 93.695312 72.039062 C 93.585938 72.007812 93.472656 71.992188 93.355469 71.992188 C 93.242188 71.988281 93.128906 72 93.019531 72.027344 C 92.90625 72.054688 92.800781 72.09375 92.699219 72.148438 C 92.597656 72.203125 92.503906 72.265625 92.417969 72.34375 C 92.335938 72.421875 92.261719 72.507812 92.199219 72.605469 C 92.136719 72.703125 92.089844 72.804688 92.050781 72.914062 C 92.015625 73.023438 91.996094 73.132812 91.988281 73.25 C 91.980469 73.363281 91.988281 73.476562 92.007812 73.589844 C 92.03125 73.703125 92.066406 73.8125 92.117188 73.914062 C 92.167969 74.019531 92.226562 74.113281 92.300781 74.199219 L 83.398438 83.105469 L 59.492188 83.105469 L 59.492188 83.332031 L 83.492188 83.332031 L 87.761719 79.0625 L 91.398438 79.0625 L 93.070312 80.730469 L 96.707031 80.730469 L 98.375 79.0625 L 101.953125 79.0625 L 101.953125 79.777344 L 103.621094 79.777344 L 103.621094 78.109375 Z M 103.390625 79.554688 L 102.175781 79.554688 L 102.175781 78.339844 L 103.390625 78.339844 Z M 103.390625 79.554688 " fill-opacity="1" fill-rule="nonzero"/></g><g fill="#000000" fill-opacity="1"><g transform="translate(129.74262, 81.426946)"><g><path d="M 16.71875 0 L 16.71875 -2.515625 L 4.734375 -2.515625 L 4.734375 -15.859375 L 2.21875 -15.859375 L 2.21875 0 Z M 16.71875 0 "/></g></g></g><g fill="#000000" fill-opacity="1"><g transform="translate(149.164987, 81.426946)"><g><path d="M 15.515625 0 C 16.898438 0 18.082031 -0.488281 19.0625 -1.46875 C 20.050781 -2.457031 20.546875 -3.648438 20.546875 -5.046875 L 20.546875 -15.859375 L 18.03125 -15.859375 L 18.03125 -5.046875 C 18.03125 -4.335938 17.78125 -3.738281 17.28125 -3.25 C 16.789062 -2.757812 16.203125 -2.515625 15.515625 -2.515625 L 6.703125 -2.515625 C 6.003906 -2.515625 5.40625 -2.757812 4.90625 -3.25 C 4.414062 -3.738281 4.171875 -4.335938 4.171875 -5.046875 L 4.171875 -15.859375 L 1.65625 -15.859375 L 1.65625 -5.046875 C 1.65625 -3.648438 2.144531 -2.457031 3.125 -1.46875 C 4.113281 -0.488281 5.304688 0 6.703125 0 Z M 15.515625 0 "/></g></g></g><g fill="#000000" fill-opacity="1"><g transform="translate(173.296189, 81.426946)"><g><path d="M 22.171875 0 L 18.328125 0 L 11.234375 -6.25 L 4.140625 0 L 0.328125 0 L 9.328125 -7.921875 L 0.328125 -15.859375 L 4.140625 -15.859375 L 11.234375 -9.609375 L 18.328125 -15.859375 L 22.171875 -15.859375 L 13.140625 -7.921875 Z M 22.171875 0 "/></g></g></g><g fill="#000000" fill-opacity="1"><g transform="translate(197.714787, 81.426946)"><g><path d="M 19.84375 0 L 2.21875 0 L 2.21875 -15.859375 L 19.84375 -15.859375 L 19.84375 -13.34375 L 4.734375 -13.34375 L 4.734375 -9.1875 L 18.046875 -9.1875 L 18.046875 -6.671875 L 4.734375 -6.671875 L 4.734375 -2.515625 L 19.84375 -2.515625 Z M 19.84375 0 "/></g></g></g><g fill="#000000" fill-opacity="1"><g transform="translate(221.138557, 81.426946)"><g><path d="M 24.015625 0 L 21.5 0 L 21.5 -10.71875 L 13.765625 0 L 12.46875 0 L 4.734375 -10.71875 L 4.734375 0 L 2.21875 0 L 2.21875 -15.859375 L 4.109375 -15.859375 L 13.125 -3.40625 L 22.125 -15.859375 L 24.015625 -15.859375 Z M 24.015625 0 "/></g></g></g><g fill="#000000" fill-opacity="1"><g transform="translate(249.293268, 81.426946)"><g><path d="M 15.515625 0 C 16.898438 0 18.082031 -0.488281 19.0625 -1.46875 C 20.050781 -2.457031 20.546875 -3.648438 20.546875 -5.046875 L 20.546875 -10.828125 C 20.546875 -12.210938 20.050781 -13.394531 19.0625 -14.375 C 18.082031 -15.363281 16.898438 -15.859375 15.515625 -15.859375 L 6.703125 -15.859375 C 5.304688 -15.859375 4.113281 -15.363281 3.125 -14.375 C 2.144531 -13.394531 1.65625 -12.210938 1.65625 -10.828125 L 1.65625 -5.046875 C 1.65625 -3.648438 2.144531 -2.457031 3.125 -1.46875 C 4.113281 -0.488281 5.304688 0 6.703125 0 Z M 15.515625 -2.515625 L 6.703125 -2.515625 C 6.003906 -2.515625 5.40625 -2.757812 4.90625 -3.25 C 4.414062 -3.738281 4.171875 -4.335938 4.171875 -5.046875 L 4.171875 -10.828125 C 4.171875 -11.515625 4.414062 -12.101562 4.90625 -12.59375 C 5.40625 -13.09375 6.003906 -13.34375 6.703125 -13.34375 L 15.515625 -13.34375 C 16.203125 -13.34375 16.789062 -13.09375 17.28125 -12.59375 C 17.78125 -12.101562 18.03125 -11.515625 18.03125 -10.828125 L 18.03125 -5.046875 C 18.03125 -4.335938 17.78125 -3.738281 17.28125 -3.25 C 16.789062 -2.757812 16.203125 -2.515625 15.515625 -2.515625 Z M 15.515625 -2.515625 "/></g></g></g><g fill="#000000" fill-opacity="1"><g transform="translate(273.424476, 81.426946)"><g><path d="M 10.03125 0 L 7.5 0 L 7.5 -13.34375 L 0.328125 -13.34375 L 0.328125 -15.859375 L 17.21875 -15.859375 L 17.21875 -13.34375 L 10.03125 -13.34375 Z M 10.03125 0 "/></g></g></g><g fill="#000000" fill-opacity="1"><g transform="translate(292.891063, 81.426946)"><g><path d="M 4.734375 0 L 4.734375 -15.859375 L 2.21875 -15.859375 L 2.21875 0 Z M 4.734375 0 "/></g></g></g><g fill="#000000" fill-opacity="1"><g transform="translate(301.757243, 81.426946)"><g><path d="M 15.515625 0 C 16.898438 0 18.082031 -0.488281 19.0625 -1.46875 C 20.050781 -2.457031 20.546875 -3.648438 20.546875 -5.046875 L 20.546875 -10.828125 C 20.546875 -12.210938 20.050781 -13.394531 19.0625 -14.375 C 18.082031 -15.363281 16.898438 -15.859375 15.515625 -15.859375 L 6.703125 -15.859375 C 5.304688 -15.859375 4.113281 -15.363281 3.125 -14.375 C 2.144531 -13.394531 1.65625 -12.210938 1.65625 -10.828125 L 1.65625 -5.046875 C 1.65625 -3.648438 2.144531 -2.457031 3.125 -1.46875 C 4.113281 -0.488281 5.304688 0 6.703125 0 Z M 15.515625 -2.515625 L 6.703125 -2.515625 C 6.003906 -2.515625 5.40625 -2.757812 4.90625 -3.25 C 4.414062 -3.738281 4.171875 -4.335938 4.171875 -5.046875 L 4.171875 -10.828125 C 4.171875 -11.515625 4.414062 -12.101562 4.90625 -12.59375 C 5.40625 -13.09375 6.003906 -13.34375 6.703125 -13.34375 L 15.515625 -13.34375 C 16.203125 -13.34375 16.789062 -13.09375 17.28125 -12.59375 C 17.78125 -12.101562 18.03125 -11.515625 18.03125 -10.828125 L 18.03125 -5.046875 C 18.03125 -4.335938 17.78125 -3.738281 17.28125 -3.25 C 16.789062 -2.757812 16.203125 -2.515625 15.515625 -2.515625 Z M 15.515625 -2.515625 "/></g></g></g><g fill="#000000" fill-opacity="1"><g transform="translate(325.888451, 81.426946)"><g><path d="M 21.109375 0 L 19.390625 0 L 4.734375 -11.953125 L 4.734375 0 L 2.21875 0 L 2.21875 -15.859375 L 3.90625 -15.859375 L 18.578125 -3.90625 L 18.578125 -15.859375 L 21.109375 -15.859375 Z M 21.109375 0 "/></g></g></g></svg>